<?xml version="1.0" encoding="utf-8"?>
<!-- Generator: Adobe Illustrator 25.3.1, SVG Export Plug-In . SVG Version: 6.00 Build 0)  -->
<svg version="1.1" id="Layer_1" xmlns="http://www.w3.org/2000/svg" xmlns:xlink="http://www.w3.org/1999/xlink" x="0px" y="0px"
	 viewBox="0 0 24 24" style="enable-background:new 0 0 24 24;" xml:space="preserve">
<style type="text/css">
	.st0{fill:#CFCFCF;}
</style>
<path class="st0" d="M6.2,17.5C7,16.9,7.9,16.4,8.9,16c1-0.4,2-0.5,3.1-0.5s2.1,0.2,3.1,0.5c1,0.4,1.9,0.8,2.7,1.5
	c0.7-0.7,1.2-1.5,1.6-2.4c0.4-0.9,0.6-2,0.6-3.1c0-2.2-0.8-4.1-2.3-5.7S14.2,4,12,4S7.9,4.8,6.3,6.3S4,9.8,4,12
	c0,1.1,0.2,2.1,0.6,3.1C5,16,5.5,16.8,6.2,17.5z M12,12.5c-0.8,0-1.6-0.3-2.1-0.9C9.3,11.1,9,10.3,9,9.5s0.3-1.6,0.9-2.1
	c0.6-0.6,1.3-0.9,2.1-0.9c0.8,0,1.6,0.3,2.1,0.9C14.7,7.9,15,8.7,15,9.5c0,0.8-0.3,1.6-0.9,2.1C13.6,12.2,12.8,12.5,12,12.5z M12,21
	c-1.3,0-2.4-0.2-3.5-0.7c-1.1-0.5-2-1.1-2.9-1.9c-0.8-0.8-1.4-1.8-1.9-2.9C3.2,14.4,3,13.3,3,12s0.2-2.4,0.7-3.5
	c0.5-1.1,1.1-2,1.9-2.9c0.8-0.8,1.8-1.4,2.9-1.9C9.6,3.2,10.7,3,12,3s2.4,0.2,3.5,0.7c1.1,0.5,2,1.1,2.9,1.9
	c0.8,0.8,1.4,1.8,1.9,2.9C20.8,9.6,21,10.7,21,12s-0.2,2.4-0.7,3.5c-0.5,1.1-1.1,2-1.9,2.9c-0.8,0.8-1.8,1.4-2.9,1.9
	C14.4,20.8,13.3,21,12,21z M12,20c0.9,0,1.8-0.2,2.7-0.5c0.9-0.3,1.7-0.8,2.3-1.3c-0.6-0.5-1.4-0.9-2.3-1.2
	c-0.9-0.3-1.8-0.5-2.8-0.5c-1,0-1.9,0.1-2.8,0.4c-0.9,0.3-1.6,0.7-2.2,1.2c0.7,0.6,1.4,1,2.3,1.3C10.2,19.8,11.1,20,12,20z M12,11.5
	c0.6,0,1-0.2,1.4-0.6c0.4-0.4,0.6-0.9,0.6-1.4s-0.2-1-0.6-1.4C13,7.7,12.6,7.5,12,7.5c-0.6,0-1,0.2-1.4,0.6C10.2,8.5,10,8.9,10,9.5
	s0.2,1,0.6,1.4C11,11.3,11.4,11.5,12,11.5z"/>
</svg>
