<?xml version="1.0" encoding="utf-8"?>
<!-- Generator: Adobe Illustrator 25.3.1, SVG Export Plug-In . SVG Version: 6.00 Build 0)  -->
<svg version="1.1" id="Layer_1" xmlns="http://www.w3.org/2000/svg" xmlns:xlink="http://www.w3.org/1999/xlink" x="0px" y="0px"
	 viewBox="0 0 24 24" style="enable-background:new 0 0 24 24;" xml:space="preserve">
<style type="text/css">
	.st0{fill:#CFCFCF;}
</style>
<path class="st0" d="M12,15.5c1,0,1.8-0.3,2.5-1c0.7-0.7,1-1.5,1-2.5s-0.3-1.8-1-2.5c-0.7-0.7-1.5-1-2.5-1s-1.8,0.3-2.5,1
	c-0.7,0.7-1,1.5-1,2.5s0.3,1.8,1,2.5C10.2,15.2,11,15.5,12,15.5z M12,13c-0.3,0-0.5-0.1-0.7-0.3S11,12.3,11,12s0.1-0.5,0.3-0.7
	S11.7,11,12,11s0.5,0.1,0.7,0.3S13,11.7,13,12s-0.1,0.5-0.3,0.7S12.3,13,12,13z M12,21c-1.2,0-2.4-0.2-3.5-0.7
	c-1.1-0.5-2-1.1-2.9-1.9c-0.8-0.8-1.5-1.8-1.9-2.9C3.2,14.4,3,13.2,3,12c0-1.2,0.2-2.4,0.7-3.5c0.5-1.1,1.1-2,1.9-2.9
	c0.8-0.8,1.8-1.5,2.9-1.9C9.6,3.2,10.8,3,12,3c1.2,0,2.4,0.2,3.5,0.7c1.1,0.5,2,1.1,2.9,1.9c0.8,0.8,1.5,1.8,1.9,2.9
	C20.8,9.6,21,10.8,21,12c0,1.2-0.2,2.4-0.7,3.5c-0.5,1.1-1.1,2-1.9,2.9c-0.8,0.8-1.8,1.5-2.9,1.9C14.4,20.8,13.2,21,12,21z"/>
</svg>
