<?xml version="1.0" encoding="utf-8"?>
<!-- Generator: Adobe Illustrator 25.3.1, SVG Export Plug-In . SVG Version: 6.00 Build 0)  -->
<svg version="1.1" id="Layer_1" xmlns="http://www.w3.org/2000/svg" xmlns:xlink="http://www.w3.org/1999/xlink" x="0px" y="0px"
	 viewBox="0 0 24 24" style="enable-background:new 0 0 24 24;" xml:space="preserve">
<style type="text/css">
	.st0{fill:#CFCFCF;}
</style>
<path class="st0" d="M3.4,18c-0.5,0-0.8-0.2-1.2-0.5c-0.3-0.3-0.5-0.7-0.5-1.2V7.6c0-0.5,0.2-0.8,0.5-1.2S2.9,6,3.4,6h8.8
	c0.5,0,0.8,0.2,1.2,0.5c0.3,0.3,0.5,0.7,0.5,1.2v8.8c0,0.5-0.2,0.8-0.5,1.2C13,17.8,12.6,18,12.2,18C12.2,18,3.4,18,3.4,18z M3.4,17
	h8.8c0.2,0,0.3-0.1,0.4-0.2c0.1-0.1,0.2-0.3,0.2-0.4V7.6c0-0.2-0.1-0.3-0.2-0.4C12.4,7.1,12.3,7,12.2,7H3.4C3.2,7,3.1,7.1,3,7.2
	C2.8,7.3,2.8,7.5,2.8,7.6v8.8c0,0.2,0.1,0.3,0.2,0.4C3.1,16.9,3.2,17,3.4,17z M7.3,14.4L6.2,13c-0.1-0.1-0.2-0.2-0.3-0.2
	c-0.1,0-0.2,0.1-0.3,0.2l-0.9,1.2c-0.1,0.1-0.1,0.3,0,0.4c0.1,0.1,0.2,0.2,0.4,0.2h5.5c0.2,0,0.3-0.1,0.4-0.2c0.1-0.1,0.1-0.3,0-0.4
	l-1.3-1.8c-0.1-0.1-0.2-0.2-0.3-0.2c-0.1,0-0.2,0.1-0.3,0.2C8.8,12.3,7.3,14.4,7.3,14.4z M17.5,18c-0.1,0-0.3,0-0.4-0.1
	C17,17.8,17,17.6,17,17.5v-11c0-0.1,0-0.3,0.1-0.4C17.2,6,17.4,6,17.5,6c0.1,0,0.3,0,0.4,0.1C18,6.2,18,6.4,18,6.5v11
	c0,0.1,0,0.3-0.1,0.4C17.8,18,17.6,18,17.5,18z M21.7,18c-0.1,0-0.3,0-0.4-0.1c-0.1-0.1-0.1-0.2-0.1-0.4v-11c0-0.1,0-0.3,0.1-0.4
	C21.5,6,21.6,6,21.7,6c0.1,0,0.3,0,0.4,0.1c0.1,0.1,0.1,0.2,0.1,0.4v11c0,0.1,0,0.3-0.1,0.4C22,18,21.9,18,21.7,18z M2.8,17V7V17z"
	/>
</svg>
