<?xml version="1.0" encoding="utf-8"?>
<!-- Generator: Adobe Illustrator 25.3.1, SVG Export Plug-In . SVG Version: 6.00 Build 0)  -->
<svg version="1.1" id="Layer_1" xmlns="http://www.w3.org/2000/svg" xmlns:xlink="http://www.w3.org/1999/xlink" x="0px" y="0px"
	 viewBox="0 0 24 24" style="enable-background:new 0 0 24 24;" xml:space="preserve">
<style type="text/css">
	.st0{fill:#CFCFCF;}
</style>
<path class="st0" d="M10.6,14.5L8.1,12c-0.1-0.1-0.2-0.1-0.3-0.1c-0.1,0-0.3,0-0.4,0.1c-0.1,0.1-0.2,0.2-0.2,0.4
	c0,0.1,0.1,0.2,0.2,0.4l2.6,2.6c0.2,0.2,0.3,0.2,0.6,0.2c0.2,0,0.4-0.1,0.6-0.2l5.5-5.5c0.1-0.1,0.1-0.2,0.1-0.3
	c0-0.1,0-0.3-0.1-0.4C16.5,9.1,16.4,9,16.2,9c-0.1,0-0.2,0.1-0.4,0.2L10.6,14.5z M12,21c-1.2,0-2.4-0.2-3.5-0.7
	c-1.1-0.5-2-1.1-2.9-1.9c-0.8-0.8-1.5-1.8-1.9-2.9C3.2,14.4,3,13.2,3,12c0-1.2,0.2-2.4,0.7-3.5c0.5-1.1,1.1-2,1.9-2.9
	c0.8-0.8,1.8-1.5,2.9-1.9C9.6,3.2,10.8,3,12,3c1.2,0,2.4,0.2,3.5,0.7c1.1,0.5,2,1.1,2.9,1.9c0.8,0.8,1.5,1.8,1.9,2.9
	C20.8,9.6,21,10.8,21,12c0,1.2-0.2,2.4-0.7,3.5c-0.5,1.1-1.1,2-1.9,2.9c-0.8,0.8-1.8,1.5-2.9,1.9C14.4,20.8,13.2,21,12,21z"/>
</svg>
