<?xml version="1.0" encoding="utf-8"?>
<!-- Generator: Adobe Illustrator 25.3.1, SVG Export Plug-In . SVG Version: 6.00 Build 0)  -->
<svg version="1.1" id="Layer_1" xmlns="http://www.w3.org/2000/svg" xmlns:xlink="http://www.w3.org/1999/xlink" x="0px" y="0px"
	 viewBox="0 0 24 24" style="enable-background:new 0 0 24 24;" xml:space="preserve">
<style type="text/css">
	.st0{fill:#CFCFCF;}
</style>
<path class="st0" d="M12,13c-0.3,0-0.5-0.1-0.7-0.3S11,12.3,11,12s0.1-0.5,0.3-0.7S11.7,11,12,11s0.5,0.1,0.7,0.3S13,11.7,13,12
	s-0.1,0.5-0.3,0.7S12.3,13,12,13z M12,21c-1.2,0-2.4-0.2-3.5-0.7c-1.1-0.5-2-1.1-2.9-1.9c-0.8-0.8-1.5-1.8-1.9-2.9
	C3.2,14.4,3,13.2,3,12c0-1.2,0.2-2.4,0.7-3.5c0.5-1.1,1.1-2,1.9-2.9c0.8-0.8,1.8-1.5,2.9-1.9C9.6,3.2,10.8,3,12,3
	c1.2,0,2.4,0.2,3.5,0.7c1.1,0.5,2,1.1,2.9,1.9c0.8,0.8,1.5,1.8,1.9,2.9C20.8,9.6,21,10.8,21,12c0,1.2-0.2,2.4-0.7,3.5
	c-0.5,1.1-1.1,2-1.9,2.9c-0.8,0.8-1.8,1.5-2.9,1.9C14.4,20.8,13.2,21,12,21z M12,20c2.2,0,4.1-0.8,5.7-2.3c1.5-1.5,2.3-3.4,2.3-5.7
	s-0.8-4.1-2.3-5.7C16.1,4.8,14.2,4,12,4S7.9,4.8,6.3,6.3S4,9.8,4,12s0.8,4.1,2.3,5.7C7.9,19.2,9.8,20,12,20z M12,20
	c-2.2,0-4.1-0.8-5.7-2.3C4.8,16.1,4,14.2,4,12s0.8-4.1,2.3-5.7S9.8,4,12,4s4.1,0.8,5.7,2.3C19.2,7.9,20,9.8,20,12s-0.8,4.1-2.3,5.7
	C16.1,19.2,14.2,20,12,20z M13.3,13.6c0.1,0,0.1-0.1,0.2-0.1c0.1-0.1,0.1-0.1,0.1-0.2l2.7-5c0.1-0.2,0.1-0.3-0.1-0.4
	c-0.1-0.1-0.3-0.2-0.5-0.1l-5,2.7c-0.1,0-0.1,0.1-0.2,0.1c-0.1,0.1-0.1,0.1-0.1,0.2l-2.7,5c-0.1,0.2-0.1,0.3,0.1,0.5
	s0.3,0.1,0.5,0.1C8.3,16.2,13.3,13.6,13.3,13.6z"/>
</svg>
