<?xml version="1.0" encoding="utf-8"?>
<!-- Generator: Adobe Illustrator 25.3.1, SVG Export Plug-In . SVG Version: 6.00 Build 0)  -->
<svg version="1.1" id="Layer_1" xmlns="http://www.w3.org/2000/svg" xmlns:xlink="http://www.w3.org/1999/xlink" x="0px" y="0px"
	 viewBox="0 0 24 24" style="enable-background:new 0 0 24 24;" xml:space="preserve">
<style type="text/css">
	.st0{fill:#CFCFCF;}
</style>
<path class="st0" d="M6,19h3.7v-5.1c0-0.2,0.1-0.4,0.2-0.6c0.2-0.2,0.3-0.2,0.6-0.2h3c0.2,0,0.4,0.1,0.6,0.2
	c0.2,0.2,0.2,0.3,0.2,0.6V19H18v-8.7c0-0.1,0-0.2-0.1-0.3c0-0.1-0.1-0.2-0.2-0.2l-5.4-4.1c-0.1-0.1-0.2-0.1-0.4-0.1
	c-0.1,0-0.3,0-0.4,0.1L6.2,9.8C6.2,9.9,6.1,9.9,6.1,10C6,10.1,6,10.2,6,10.3V19z M5,19v-8.7c0-0.3,0.1-0.5,0.2-0.7
	C5.3,9.4,5.4,9.2,5.6,9L11,4.9c0.3-0.2,0.6-0.3,1-0.3c0.4,0,0.7,0.1,1,0.3L18.4,9c0.2,0.1,0.4,0.3,0.5,0.6c0.1,0.2,0.2,0.5,0.2,0.7
	V19c0,0.3-0.1,0.5-0.3,0.7C18.5,19.9,18.3,20,18,20h-3.9c-0.2,0-0.4-0.1-0.6-0.2c-0.2-0.2-0.2-0.3-0.2-0.6v-5.1h-2.6v5.1
	c0,0.2-0.1,0.4-0.2,0.6c-0.2,0.2-0.3,0.2-0.6,0.2H6c-0.3,0-0.5-0.1-0.7-0.3C5.1,19.5,5,19.3,5,19z"/>
</svg>
