<?xml version="1.0" encoding="utf-8"?>
<!-- Generator: Adobe Illustrator 25.3.1, SVG Export Plug-In . SVG Version: 6.00 Build 0)  -->
<svg version="1.1" id="Layer_1" xmlns="http://www.w3.org/2000/svg" xmlns:xlink="http://www.w3.org/1999/xlink" x="0px" y="0px"
	 viewBox="0 0 24 24" style="enable-background:new 0 0 24 24;" xml:space="preserve">
<style type="text/css">
	.st0{fill:#CFCFCF;}
</style>
<path class="st0" d="M12.2,14.7c0.6,0,1-0.2,1.4-0.6c0.4-0.4,0.6-0.9,0.6-1.4V7h2c0.2,0,0.4-0.1,0.5-0.2c0.2-0.1,0.2-0.3,0.2-0.5
	c0-0.2-0.1-0.4-0.2-0.5c-0.2-0.2-0.3-0.2-0.5-0.2h-2c-0.2,0-0.4,0.1-0.5,0.2c-0.2,0.2-0.2,0.3-0.2,0.5v5c-0.2-0.2-0.4-0.3-0.6-0.4
	c-0.2-0.1-0.4-0.1-0.7-0.1c-0.6,0-1,0.2-1.4,0.6c-0.4,0.4-0.6,0.9-0.6,1.4c0,0.6,0.2,1,0.6,1.4C11.2,14.5,11.6,14.7,12.2,14.7z
	 M8.1,17c-0.5,0-0.8-0.2-1.2-0.5c-0.3-0.3-0.5-0.7-0.5-1.2V4.6c0-0.5,0.2-0.8,0.5-1.2S7.7,3,8.1,3h10.8c0.5,0,0.8,0.2,1.2,0.5
	s0.5,0.7,0.5,1.2v10.8c0,0.5-0.2,0.8-0.5,1.2c-0.3,0.3-0.7,0.5-1.2,0.5C18.9,17,8.1,17,8.1,17z M8.1,16h10.8c0.2,0,0.3-0.1,0.4-0.2
	c0.1-0.1,0.2-0.3,0.2-0.4V4.6c0-0.2-0.1-0.3-0.2-0.4C19.2,4.1,19,4,18.9,4H8.1C8,4,7.8,4.1,7.7,4.2C7.6,4.3,7.5,4.5,7.5,4.6v10.8
	c0,0.2,0.1,0.3,0.2,0.4C7.8,15.9,8,16,8.1,16z M5.1,20c-0.5,0-0.8-0.2-1.2-0.5c-0.3-0.3-0.5-0.7-0.5-1.2V7.1c0-0.1,0-0.3,0.1-0.4
	C3.7,6.7,3.9,6.6,4,6.6c0.1,0,0.3,0,0.4,0.1C4.5,6.9,4.5,7,4.5,7.1v11.3c0,0.2,0.1,0.3,0.2,0.4S5,19,5.1,19h11.3
	c0.1,0,0.3,0,0.4,0.1c0.1,0.1,0.1,0.2,0.1,0.4c0,0.1,0,0.3-0.1,0.4C16.6,20,16.5,20,16.4,20C16.4,20,5.1,20,5.1,20z M7.5,4v12V4z"/>
</svg>
