<?xml version="1.0" encoding="utf-8"?>
<!-- Generator: Adobe Illustrator 25.3.1, SVG Export Plug-In . SVG Version: 6.00 Build 0)  -->
<svg version="1.1" id="Layer_1" xmlns="http://www.w3.org/2000/svg" xmlns:xlink="http://www.w3.org/1999/xlink" x="0px" y="0px"
	 viewBox="0 0 24 24" style="enable-background:new 0 0 24 24;" xml:space="preserve">
<style type="text/css">
	.st0{fill:#CFCFCF;}
</style>
<path class="st0" d="M14.5,18c-0.3,0-0.5-0.1-0.7-0.3c-0.2-0.2-0.3-0.4-0.3-0.7V7c0-0.3,0.1-0.5,0.3-0.7C14,6.1,14.2,6,14.5,6H17
	c0.3,0,0.5,0.1,0.7,0.3C17.9,6.5,18,6.7,18,7v10c0,0.3-0.1,0.5-0.3,0.7C17.5,17.9,17.3,18,17,18H14.5z M7,18c-0.3,0-0.5-0.1-0.7-0.3
	C6.1,17.5,6,17.3,6,17V7c0-0.3,0.1-0.5,0.3-0.7C6.5,6.1,6.7,6,7,6h2.5c0.3,0,0.5,0.1,0.7,0.3c0.2,0.2,0.3,0.4,0.3,0.7v10
	c0,0.3-0.1,0.5-0.3,0.7C10,17.9,9.8,18,9.5,18H7z M14.5,17H17V7h-2.5V17z M7,17h2.5V7H7V17z M7,7v10V7z M14.5,7v10V7z"/>
</svg>
