<?xml version="1.0" encoding="utf-8"?>
<!-- Generator: Adobe Illustrator 25.3.1, SVG Export Plug-In . SVG Version: 6.00 Build 0)  -->
<svg version="1.1" id="Layer_1" xmlns="http://www.w3.org/2000/svg" xmlns:xlink="http://www.w3.org/1999/xlink" x="0px" y="0px"
	 viewBox="0 0 24 24" style="enable-background:new 0 0 24 24;" xml:space="preserve">
<style type="text/css">
	.st0{fill:#CFCFCF;}
</style>
<path class="st0" d="M3.8,19c-0.2,0-0.4-0.1-0.5-0.2C3.1,18.6,3,18.5,3,18.2c0-0.2,0.1-0.4,0.2-0.5s0.3-0.2,0.5-0.2H5V6.6
	c0-0.4,0.2-0.8,0.5-1.1C5.8,5.2,6.2,5,6.6,5h12.9c0.1,0,0.3,0,0.4,0.1C20,5.2,20,5.4,20,5.5c0,0.1,0,0.3-0.1,0.4S19.6,6,19.5,6H6.6
	C6.4,6,6.3,6.1,6.2,6.2C6.1,6.3,6,6.4,6,6.6v10.9h4.7c0.2,0,0.4,0.1,0.5,0.2c0.1,0.1,0.2,0.3,0.2,0.5c0,0.2-0.1,0.4-0.2,0.5
	S10.9,19,10.7,19C10.7,19,3.8,19,3.8,19z M15.1,19c-0.2,0-0.4-0.1-0.6-0.2c-0.2-0.2-0.2-0.3-0.2-0.6v-9c0-0.2,0.1-0.4,0.2-0.6
	c0.2-0.2,0.3-0.2,0.6-0.2h5.2c0.2,0,0.4,0.1,0.6,0.2C20.9,8.8,21,9,21,9.2v9c0,0.2-0.1,0.4-0.2,0.6c-0.2,0.2-0.3,0.2-0.6,0.2H15.1z
	 M15.2,17.5H20V9.4h-4.8V17.5z M15.2,17.5H20H15.2z"/>
</svg>
