<?xml version="1.0" encoding="utf-8"?>
<!-- Generator: Adobe Illustrator 25.3.1, SVG Export Plug-In . SVG Version: 6.00 Build 0)  -->
<svg version="1.1" id="Layer_1" xmlns="http://www.w3.org/2000/svg" xmlns:xlink="http://www.w3.org/1999/xlink" x="0px" y="0px"
	 viewBox="0 0 24 24" style="enable-background:new 0 0 24 24;" xml:space="preserve">
<style type="text/css">
	.st0{fill:#CFCFCF;}
</style>
<path class="st0" d="M12,19.1c-0.2,0-0.4,0-0.6-0.1s-0.4-0.2-0.5-0.3l-1.1-1C8,16,6.4,14.4,5,12.9c-1.4-1.5-2-3.1-2-4.8
	c0-1.3,0.4-2.3,1.3-3.2c0.9-0.9,1.9-1.3,3.2-1.3c0.7,0,1.5,0.2,2.3,0.6c0.8,0.4,1.5,1.1,2.2,2.1c0.7-1,1.4-1.7,2.2-2.1
	c0.8-0.4,1.5-0.6,2.3-0.6c1.3,0,2.3,0.4,3.2,1.3C20.6,5.8,21,6.9,21,8.1c0,1.7-0.7,3.3-2.1,4.9c-1.4,1.6-3,3.1-4.7,4.6l-1.1,1
	c-0.1,0.1-0.3,0.3-0.5,0.3C12.4,19.1,12.2,19.1,12,19.1z"/>
</svg>
