<?xml version="1.0" encoding="utf-8"?>
<!-- Generator: Adobe Illustrator 25.3.1, SVG Export Plug-In . SVG Version: 6.00 Build 0)  -->
<svg version="1.1" id="Layer_1" xmlns="http://www.w3.org/2000/svg" xmlns:xlink="http://www.w3.org/1999/xlink" x="0px" y="0px"
	 viewBox="0 0 24 24" style="enable-background:new 0 0 24 24;" xml:space="preserve">
<style type="text/css">
	.st0{fill:#CFCFCF;}
</style>
<path class="st0" d="M5,19v-8.7c0-0.3,0.1-0.5,0.2-0.7C5.3,9.4,5.4,9.2,5.6,9L11,4.9c0.3-0.2,0.6-0.3,1-0.3c0.4,0,0.7,0.1,1,0.3
	L18.4,9c0.2,0.1,0.4,0.3,0.5,0.6c0.1,0.2,0.2,0.5,0.2,0.7V19c0,0.3-0.1,0.5-0.3,0.7C18.5,19.9,18.3,20,18,20h-3.4
	c-0.2,0-0.4-0.1-0.6-0.2c-0.2-0.2-0.2-0.3-0.2-0.6v-4.8c0-0.2-0.1-0.4-0.2-0.6c-0.2-0.2-0.3-0.2-0.6-0.2h-2c-0.2,0-0.4,0.1-0.6,0.2
	c-0.2,0.2-0.2,0.3-0.2,0.6v4.8c0,0.2-0.1,0.4-0.2,0.6C9.8,19.9,9.6,20,9.4,20H6c-0.3,0-0.5-0.1-0.7-0.3C5.1,19.5,5,19.3,5,19z"/>
</svg>
