<?xml version="1.0" encoding="utf-8"?>
<!-- Generator: Adobe Illustrator 25.3.1, SVG Export Plug-In . SVG Version: 6.00 Build 0)  -->
<svg version="1.1" id="Layer_1" xmlns="http://www.w3.org/2000/svg" xmlns:xlink="http://www.w3.org/1999/xlink" x="0px" y="0px"
	 viewBox="0 0 24 24" style="enable-background:new 0 0 24 24;" xml:space="preserve">
<style type="text/css">
	.st0{fill:#CFCFCF;}
</style>
<path class="st0" d="M4.8,18c-0.2,0-0.4-0.1-0.6-0.2C4.1,17.6,4,17.4,4,17.2v-4.4c0-0.2,0.1-0.4,0.2-0.6C4.4,12.1,4.6,12,4.8,12
	h14.4c0.2,0,0.4,0.1,0.6,0.2c0.2,0.2,0.2,0.3,0.2,0.6v4.4c0,0.2-0.1,0.4-0.2,0.6c-0.2,0.2-0.3,0.2-0.6,0.2H4.8z M4.5,10
	c-0.1,0-0.3,0-0.4-0.1C4,9.8,4,9.6,4,9.5c0-0.1,0-0.3,0.1-0.4S4.4,9,4.5,9h15c0.1,0,0.3,0,0.4,0.1C20,9.2,20,9.4,20,9.5
	c0,0.1,0,0.3-0.1,0.4C19.8,10,19.6,10,19.5,10H4.5z M4.5,7C4.4,7,4.2,7,4.1,6.9C4,6.8,4,6.6,4,6.5c0-0.1,0-0.3,0.1-0.4
	C4.2,6,4.4,6,4.5,6h15c0.1,0,0.3,0,0.4,0.1C20,6.2,20,6.4,20,6.5c0,0.1,0,0.3-0.1,0.4S19.6,7,19.5,7H4.5z"/>
</svg>
