<?xml version="1.0" encoding="utf-8"?>
<!-- Generator: Adobe Illustrator 25.3.1, SVG Export Plug-In . SVG Version: 6.00 Build 0)  -->
<svg version="1.1" id="Layer_1" xmlns="http://www.w3.org/2000/svg" xmlns:xlink="http://www.w3.org/1999/xlink" x="0px" y="0px"
	 viewBox="0 0 24 24" style="enable-background:new 0 0 24 24;" xml:space="preserve">
<style type="text/css">
	.st0{fill:#CFCFCF;}
</style>
<path class="st0" d="M10.1,12l4.2,4.2c0.1,0.1,0.1,0.2,0.1,0.3c0,0.1,0,0.3-0.1,0.4c-0.1,0.1-0.2,0.2-0.4,0.2s-0.2-0.1-0.4-0.2
	l-4.4-4.4c-0.1-0.1-0.1-0.2-0.2-0.3C9,12.2,9,12.1,9,12c0-0.1,0-0.2,0.1-0.3c0-0.1,0.1-0.2,0.2-0.3L13.6,7C13.7,7,13.9,6.9,14,6.9
	c0.1,0,0.3,0,0.4,0.1c0.1,0.1,0.2,0.2,0.2,0.4c0,0.1-0.1,0.2-0.2,0.4L10.1,12z"/>
</svg>
