<?xml version="1.0" encoding="utf-8"?>
<!-- Generator: Adobe Illustrator 25.3.1, SVG Export Plug-In . SVG Version: 6.00 Build 0)  -->
<svg version="1.1" id="Layer_1" xmlns="http://www.w3.org/2000/svg" xmlns:xlink="http://www.w3.org/1999/xlink" x="0px" y="0px"
	 viewBox="0 0 24 24" style="enable-background:new 0 0 24 24;" xml:space="preserve">
<style type="text/css">
	.st0{fill:#CFCFCF;}
</style>
<path class="st0" d="M3.2,17.5v-12V17.5z M2.2,21v-15c0-0.4,0.2-0.8,0.5-1.1C3,4.6,3.4,4.5,3.8,4.5h9.8c0.4,0,0.8,0.2,1.1,0.5
	c0.3,0.3,0.5,0.7,0.5,1.1v0.3c-0.2,0.1-0.4,0.2-0.5,0.3c-0.2,0.1-0.3,0.2-0.5,0.4v-1c0-0.2-0.1-0.3-0.2-0.4
	c-0.1-0.1-0.3-0.2-0.4-0.2H3.8c-0.2,0-0.3,0.1-0.4,0.2C3.3,5.7,3.2,5.9,3.2,6.1v11.4h10.4c0.2,0,0.3-0.1,0.4-0.2s0.2-0.3,0.2-0.4v-3
	c0.2,0.1,0.3,0.3,0.5,0.4c0.2,0.1,0.3,0.2,0.5,0.3v2.3c0,0.4-0.2,0.8-0.5,1.1c-0.3,0.3-0.7,0.5-1.1,0.5H4.8L2.2,21z M5.7,15h3v-1h-3
	V15z M17.3,13c-0.7,0-1.3-0.2-1.8-0.7c-0.5-0.5-0.7-1.1-0.7-1.8s0.2-1.3,0.7-1.8C16,8.2,16.6,8,17.3,8c0.3,0,0.6,0,0.8,0.1
	c0.2,0.1,0.5,0.2,0.7,0.5V3h3v1h-2v6.5c0,0.7-0.2,1.3-0.7,1.8C18.6,12.7,18,13,17.3,13z M5.7,12h6v-1h-6C5.7,11,5.7,12,5.7,12z
	 M5.7,9h6V8h-6C5.7,8,5.7,9,5.7,9z"/>
</svg>
