<?xml version="1.0" encoding="utf-8"?>
<!-- Generator: Adobe Illustrator 25.3.1, SVG Export Plug-In . SVG Version: 6.00 Build 0)  -->
<svg version="1.1" id="Layer_1" xmlns="http://www.w3.org/2000/svg" xmlns:xlink="http://www.w3.org/1999/xlink" x="0px" y="0px"
	 viewBox="0 0 24 24" style="enable-background:new 0 0 24 24;" xml:space="preserve">
<style type="text/css">
	.st0{fill:#CFCFCF;}
</style>
<path class="st0" d="M4.5,17.3c-0.1,0-0.3,0-0.4-0.1C4,17,4,16.9,4,16.8c0-0.1,0-0.3,0.1-0.4c0.1-0.1,0.2-0.1,0.4-0.1h15
	c0.1,0,0.3,0,0.4,0.1s0.1,0.2,0.1,0.4c0,0.1,0,0.3-0.1,0.4c-0.1,0.1-0.2,0.1-0.4,0.1C19.5,17.3,4.5,17.3,4.5,17.3z M4.5,12.5
	c-0.1,0-0.3,0-0.4-0.1C4,12.3,4,12.1,4,12c0-0.1,0-0.3,0.1-0.4c0.1-0.1,0.2-0.1,0.4-0.1h15c0.1,0,0.3,0,0.4,0.1
	C20,11.7,20,11.9,20,12c0,0.1,0,0.3-0.1,0.4c-0.1,0.1-0.2,0.1-0.4,0.1H4.5z M4.5,7.7c-0.1,0-0.3,0-0.4-0.1C4,7.5,4,7.4,4,7.2
	C4,7.1,4,7,4.1,6.9c0.1-0.1,0.2-0.1,0.4-0.1h15c0.1,0,0.3,0,0.4,0.1C20,7,20,7.1,20,7.2c0,0.1,0,0.3-0.1,0.4
	c-0.1,0.1-0.2,0.1-0.4,0.1C19.5,7.7,4.5,7.7,4.5,7.7z"/>
</svg>
