<?xml version="1.0" encoding="utf-8"?>
<!-- Generator: Adobe Illustrator 25.3.1, SVG Export Plug-In . SVG Version: 6.00 Build 0)  -->
<svg version="1.1" id="Layer_1" xmlns="http://www.w3.org/2000/svg" xmlns:xlink="http://www.w3.org/1999/xlink" x="0px" y="0px"
	 viewBox="0 0 24 24" style="enable-background:new 0 0 24 24;" xml:space="preserve">
<style type="text/css">
	.st0{fill:#CFCFCF;}
</style>
<path class="st0" d="M17.4,12.7L15.1,15c-0.1,0.1-0.2,0.1-0.3,0.1c-0.1,0-0.3,0-0.4-0.1c-0.1-0.1-0.2-0.2-0.2-0.4s0.1-0.2,0.2-0.4
	l2.2-2.2l-2.2-2.2c-0.1-0.1-0.1-0.2-0.1-0.3c0-0.1,0-0.3,0.1-0.4c0.1-0.1,0.2-0.2,0.4-0.2c0.1,0,0.2,0.1,0.4,0.2l2.2,2.2L19.6,9
	C19.7,9,19.8,8.9,20,8.9c0.1,0,0.3,0,0.4,0.2c0.1,0.1,0.2,0.2,0.2,0.4s-0.1,0.2-0.2,0.4L18.1,12l2.2,2.2c0.1,0.1,0.1,0.2,0.1,0.3
	c0,0.1,0,0.3-0.1,0.4c-0.1,0.1-0.2,0.2-0.4,0.2c-0.1,0-0.2-0.1-0.4-0.2L17.4,12.7z M7.7,14H5.1c-0.2,0-0.4-0.1-0.6-0.2
	c-0.2-0.2-0.2-0.3-0.2-0.6v-2.4c0-0.2,0.1-0.4,0.2-0.6C4.7,10.1,4.9,10,5.1,10h2.6l2.7-2.7c0.2-0.2,0.4-0.2,0.6-0.1
	c0.2,0.1,0.3,0.2,0.3,0.5v8.7c0,0.2-0.1,0.4-0.3,0.5c-0.2,0.1-0.4,0-0.6-0.1L7.7,14z M10.3,8.8L8.2,11H5.3v2h2.8l2.2,2.1V8.8z"/>
</svg>
