<?xml version="1.0" encoding="utf-8"?>
<!-- Generator: Adobe Illustrator 25.3.1, SVG Export Plug-In . SVG Version: 6.00 Build 0)  -->
<svg version="1.1" id="Layer_1" xmlns="http://www.w3.org/2000/svg" xmlns:xlink="http://www.w3.org/1999/xlink" x="0px" y="0px"
	 viewBox="0 0 24 24" style="enable-background:new 0 0 24 24;" xml:space="preserve">
<style type="text/css">
	.st0{fill:#CFCFCF;}
</style>
<path class="st0" d="M15.8,19c-0.7,0-1.2-0.2-1.7-0.7c-0.5-0.5-0.7-1-0.7-1.7c0-0.7,0.2-1.2,0.7-1.7c0.5-0.5,1-0.7,1.7-0.7
	c0.3,0,0.5,0,0.7,0.1c0.2,0.1,0.4,0.2,0.7,0.4v-7c0-0.2,0.1-0.4,0.2-0.5C17.5,7.1,17.7,7,17.9,7h2.4c0.2,0,0.4,0.1,0.5,0.2
	C20.9,7.3,21,7.5,21,7.7c0,0.2-0.1,0.4-0.2,0.5c-0.1,0.1-0.3,0.2-0.5,0.2h-2.1v8.2c0,0.7-0.2,1.2-0.7,1.7C17,18.8,16.4,19,15.8,19z
	 M4.5,14.8c-0.1,0-0.3,0-0.4-0.1C4,14.5,4,14.4,4,14.3c0-0.1,0-0.3,0.1-0.4c0.1-0.1,0.2-0.1,0.4-0.1h6c0.1,0,0.3,0,0.4,0.1
	C11,14,11,14.1,11,14.3c0,0.1,0,0.3-0.1,0.4c-0.1,0.1-0.2,0.1-0.4,0.1C10.5,14.8,4.5,14.8,4.5,14.8z M4.5,11.4c-0.1,0-0.3,0-0.4-0.1
	C4,11.1,4,11,4,10.9c0-0.1,0-0.3,0.1-0.4c0.1-0.1,0.2-0.1,0.4-0.1h9.8c0.1,0,0.3,0,0.4,0.1c0.1,0.1,0.1,0.2,0.1,0.4
	c0,0.1,0,0.3-0.1,0.4c-0.1,0.1-0.2,0.1-0.4,0.1C14.3,11.4,4.5,11.4,4.5,11.4z M4.5,8C4.4,8,4.2,8,4.1,7.9C4,7.8,4,7.6,4,7.5
	c0-0.1,0-0.3,0.1-0.4C4.2,7,4.4,7,4.5,7h9.8c0.1,0,0.3,0,0.4,0.1c0.1,0.1,0.1,0.2,0.1,0.4c0,0.1,0,0.3-0.1,0.4C14.5,8,14.4,8,14.3,8
	H4.5z"/>
</svg>
