<?xml version="1.0" encoding="utf-8"?>
<!-- Generator: Adobe Illustrator 25.3.1, SVG Export Plug-In . SVG Version: 6.00 Build 0)  -->
<svg version="1.1" id="Layer_1" xmlns="http://www.w3.org/2000/svg" xmlns:xlink="http://www.w3.org/1999/xlink" x="0px" y="0px"
	 viewBox="0 0 24 24" style="enable-background:new 0 0 24 24;" xml:space="preserve">
<style type="text/css">
	.st0{fill:#CFCFCF;}
</style>
<path class="st0" d="M6.7,16.1V7.9c0-0.1,0-0.3,0.1-0.4C7,7.4,7.1,7.4,7.2,7.4c0.1,0,0.3,0,0.4,0.1c0.1,0.1,0.1,0.2,0.1,0.4v8.2
	c0,0.1,0,0.3-0.1,0.4c-0.1,0.1-0.2,0.1-0.4,0.1c-0.1,0-0.3,0-0.4-0.1C6.8,16.4,6.7,16.3,6.7,16.1z M16,15.8l-4.7-3.1
	c-0.1-0.1-0.2-0.2-0.3-0.3C11,12.3,11,12.1,11,12s0-0.3,0.1-0.4c0.1-0.1,0.1-0.2,0.3-0.3L16,8.2c0.1-0.1,0.1-0.1,0.2-0.1
	c0.1,0,0.2,0,0.2,0c0.2,0,0.4,0.1,0.6,0.2c0.2,0.1,0.2,0.3,0.2,0.6v6.2c0,0.2-0.1,0.4-0.2,0.6c-0.2,0.1-0.3,0.2-0.6,0.2
	c-0.1,0-0.2,0-0.2,0C16.2,15.9,16.1,15.8,16,15.8z M16.3,14.7V9.2L12.1,12L16.3,14.7z"/>
</svg>
